<?xml version="1.0" encoding="UTF-8"?>
<svg width="528px" height="529px" viewBox="0 0 528 529" version="1.1" xmlns="http://www.w3.org/2000/svg" xmlns:xlink="http://www.w3.org/1999/xlink">
    <!-- Generator: Sketch 58 (84663) - https://sketch.com -->
    <title>logo</title>
    <desc>Created with Sketch.</desc>
    <g id="Page-1" stroke="none" stroke-width="1" fill="none" fill-rule="evenodd">
        <g id="logo" transform="translate(6.000000, 6.000000)" stroke="#000000">
            <polygon id="path2836" stroke-width="1.38529709" fill="#0079DC" fill-rule="nonzero" points="260.305345 21.8181472 30.5954065 251.836824 23.5156637 258.926082 259.318732 495.046071 496.108398 257.938136"></polygon>
            <polygon id="path2838" stroke-width="1.38529709" fill="#00C8E9" fill-rule="nonzero" points="259.318732 22.8061075 259.318732 2.05916542 1.80995771 259.914029 23.5156637 259.914029 259.318732 22.8061075"></polygon>
            <polygon id="path2840" stroke-width="1.38529709" fill="#06A0E2" fill-rule="nonzero" points="258.726755 22.8061075 258.726755 2.05916542 516.235518 259.914029 494.529809 259.914029 258.726755 22.8061075"></polygon>
            <polygon id="path2842" stroke-width="1.38529709" fill="#06509B" fill-rule="nonzero" points="259.318732 496.429193 259.318732 517.176135 1.80995771 259.321272 23.5156637 259.321272"></polygon>
            <polygon id="path3650" stroke-width="27.7059431" points="49.5821352 28.2461198 215.622443 28.2461198 225.738334 38.3755909 225.738334 69.4626742 217.715379 79.2428589 199.576517 79.2428589 199.576517 233.630375 355.849737 79.2428589 330.036753 79.2428589 320.967314 69.4626742 320.967314 36.6291313 329.339103 28.9446925 497.472346 28.9446925 505.844119 37.3277179 505.844119 68.065501 125.625817 458.575041 82.371622 458.575041 69.8515063 451.336839 69.8515063 77.8456996 48.8845003 77.8456996 41.2103778 70.1612608 41.2103778 37.3277179"></polygon>
            <polygon id="path2844" stroke-width="1.38529709" fill="#01356B" fill-rule="nonzero" points="258.726755 496.429193 258.726755 517.176135 516.235518 259.321272 494.529809 259.321272 258.726755 496.429193"></polygon>
            <polygon id="path2846" stroke-width="8.31178252" points="258.623917 0.146600735 0.146602634 258.971317 257.546939 516.717618 516.024263 257.892888"></polygon>
            <polygon id="path3640" stroke-width="1.38529709" fill="#FEFEFE" fill-rule="nonzero" points="217.387203 44.0470157 226.76013 39.1072703 217.140549 29.4747624 49.6611911 29.4747624 41.1515494 37.9958185 41.1515494 70.2276833 50.5861405 79.6749469 55.0876222 70.2276833 49.1678848 64.2999776 49.1678848 41.577129 53.6076878 37.6253438 213.440721 37.6253438"></polygon>
            <polygon id="path3632" stroke-width="1.38848869" points="335.794388 36.6304314 329.880812 42.551955 329.880812 64.2930233 335.060586 69.4797592 362.42706 69.4797592 362.42706 90.4860399 181.393953 274.226162 181.393953 69.739096 211.479808 69.739096 217.652372 63.5582357 217.652372 41.5578306 211.954621 37.149105 53.6261911 37.149105 48.446417 42.335841 48.446417 64.8116969 53.7125207 70.0848784 81.2516532 70.0848784 81.2516532 446.64191 86.4314274 451.828646 117.725896 451.828646 497.101187 59.8410749 497.101187 42.551955 491.187612 36.6304314"></polygon>
            <polygon id="path3646" stroke-width="1.38529709" fill="#FEFEFE" fill-rule="nonzero" points="80.9763214 69.4626742 80.9763214 446.699068 85.8598581 452.287761 82.0301753 459.596345 71.2092481 448.794828 71.2092481 79.2428589"></polygon>
            <polygon id="path3644" stroke-width="1.38529709" fill="#808080" fill-rule="nonzero" points="53.9188392 69.4626742 51.1282381 78.5442862 71.3600504 78.5442862 82.5224243 69.4626742"></polygon>
            <path d="M331.835562,79.6626103 L336.275365,70.5240826 L329.862306,64.5963769 L329.862306,44.3434149 L337.261993,36.9337689 L491.668595,36.9337689 L497.588333,44.8373811 L505.974632,38.9096754 L497.341679,30.2651139 L331.34224,30.2651139 L323.079282,38.5392008 L323.079282,71.0180348 L331.650572,79.1068913 M197.500591,235.060933 L181.375456,274.239299 L363.40752,91.4686055 L363.40752,69.7337172 L197.500591,235.060933 L197.500591,235.060933 Z" id="path3638" stroke-width="1.38529709" fill="#FEFEFE" fill-rule="nonzero"></path>
            <polygon id="path3642" stroke-width="1.38529709" fill="#808080" fill-rule="nonzero" points="217.017713 42.9164108 225.040684 37.6770182 225.040684 69.4626742 215.796844 78.7189364 197.832399 78.7189364 197.832399 235.37682 181.437656 274.148356 181.437656 69.4626742 211.436542 69.4626742 217.017713 64.9218682"></polygon>
            <polygon id="path3622" stroke-width="1.38848869" fill="#CCCCCC" fill-rule="nonzero" points="335.794388 36.6304314 329.880812 42.551955 329.880812 64.2930233 335.060586 69.4797592 362.42706 69.4797592 362.42706 90.4860399 181.393953 274.226162 181.393953 69.739096 211.479808 69.739096 217.652372 63.5582357 217.652372 41.5578306 211.954621 37.149105 53.6261911 37.149105 48.446417 42.335841 48.446417 64.8116969 53.7125207 70.0848784 81.2516532 70.0848784 81.2516532 446.64191 86.4314274 451.828646 117.725896 451.828646 497.101187 59.8410749 497.101187 42.551955 491.187612 36.6304314"></polygon>
            <polygon id="path3636" stroke-width="1.38529709" fill="#808080" fill-rule="nonzero" points="497.588333 43.0590694 506.014153 38.1878793 506.014153 68.7457569 123.850208 459.78322 83.2764664 459.78322 87.1528871 452.070261 118.231539 452.070261 497.095026 60.3482064"></polygon>
            <path d="M362.651808,69.9865967 L354.105634,78.8935726 L331.780871,78.8935726 L337.01324,69.9865967 C337.187657,69.9865967 362.651808,69.9865967 362.651808,69.9865967 Z" id="path3652" stroke-width="1.38529709" fill="#808080" fill-rule="nonzero"></path>
        </g>
    </g>
</svg>